<svg width="24" height="25" viewBox="0 0 24 25" fill="none" xmlns="http://www.w3.org/2000/svg">
<path d="M5 5.18262H11C11.55 5.18262 12 4.73262 12 4.18262C12 3.63262 11.55 3.18262 11 3.18262H5C3.9 3.18262 3 4.08262 3 5.18262V19.1826C3 20.2826 3.9 21.1826 5 21.1826H11C11.55 21.1826 12 20.7326 12 20.1826C12 19.6326 11.55 19.1826 11 19.1826H5V5.18262Z" fill="#9CA3AF"/>
<path d="M20.65 11.8327L17.86 9.04266C17.7905 8.97121 17.7012 8.92214 17.6036 8.90172C17.506 8.88131 17.4045 8.89049 17.3121 8.92807C17.2198 8.96566 17.1408 9.02995 17.0851 9.11271C17.0295 9.19547 16.9999 9.29295 17 9.39266V11.1827H10C9.45 11.1827 9 11.6327 9 12.1827C9 12.7327 9.45 13.1827 10 13.1827H17V14.9727C17 15.4227 17.54 15.6427 17.85 15.3227L20.64 12.5327C20.84 12.3427 20.84 12.0227 20.65 11.8327Z" fill="#9CA3AF"/>
</svg>
