<svg width="8" height="5" viewBox="0 0 8 5" fill="none" xmlns="http://www.w3.org/2000/svg">
<path d="M1.20692 0.5H6.79292C6.8918 0.500021 6.98845 0.529357 7.07065 0.584299C7.15286 0.639241 7.21693 0.717323 7.25476 0.808673C7.2926 0.900023 7.3025 1.00054 7.28322 1.09752C7.26393 1.19449 7.21633 1.28357 7.14642 1.3535L4.35342 4.1465C4.25966 4.24024 4.13251 4.29289 3.99992 4.29289C3.86734 4.29289 3.74019 4.24024 3.64642 4.1465L0.853425 1.3535C0.78352 1.28357 0.735917 1.19449 0.716633 1.09752C0.697349 1.00054 0.707251 0.900023 0.745086 0.808673C0.782921 0.717323 0.846991 0.639241 0.929196 0.584299C1.0114 0.529357 1.10805 0.500021 1.20692 0.5Z" fill="#fff"/>
</svg>
