<svg width="12" height="14" viewBox="0 0 12 14" fill="none" xmlns="http://www.w3.org/2000/svg">
<path fill-rule="evenodd" clip-rule="evenodd" d="M7.4055 0.627097C7.51515 0.656162 7.61736 0.708213 7.70536 0.779797C7.79336 0.851381 7.86513 0.94086 7.9159 1.0423C8.3023 1.8159 8.5911 2.2855 8.8815 2.6663C9.1759 3.0519 9.4863 3.3671 9.9599 3.8399C10.4804 4.35955 10.8932 4.97686 11.1747 5.65641C11.4561 6.33595 11.6006 7.06438 11.5999 7.7999C11.5649 9.26193 10.9596 10.6523 9.91321 11.674C8.86682 12.6957 7.46235 13.2676 5.9999 13.2676C4.53745 13.2676 3.13299 12.6957 2.08659 11.674C1.0402 10.6523 0.434854 9.26193 0.399902 7.7999C0.399902 6.3679 0.947102 4.9335 2.0399 3.8399C2.15178 3.72805 2.29431 3.65188 2.44948 3.62103C2.60464 3.59018 2.76547 3.60602 2.91163 3.66655C3.05779 3.72709 3.18272 3.8296 3.27062 3.96113C3.35853 4.09266 3.40547 4.2473 3.4055 4.4055C3.4055 5.3015 3.4615 5.9839 3.7239 6.5287C3.8679 6.8279 4.0927 7.1207 4.4799 7.3823C4.5727 6.5335 4.7423 5.4991 4.9711 4.5183C5.1511 3.7455 5.3751 2.9743 5.6423 2.3311C5.7759 2.0087 5.9271 1.7031 6.0983 1.4383C6.2647 1.1807 6.4791 0.919097 6.7559 0.734297C6.85038 0.671363 6.95716 0.629256 7.06916 0.610773C7.18116 0.59229 7.29582 0.597855 7.4055 0.627097ZM7.6967 11.0967C7.36136 11.433 6.93371 11.6622 6.46796 11.7552C6.00221 11.8482 5.51934 11.8009 5.08054 11.6191C4.64174 11.4374 4.26679 11.1295 4.00319 10.7344C3.7396 10.3393 3.59924 9.87484 3.5999 9.3999C3.5999 9.3999 4.3031 9.7999 5.5999 9.7999C5.5999 8.9999 5.9999 6.5999 6.5999 6.1999C6.9999 6.9999 7.2287 7.2343 7.6967 7.7031C8.1655 8.1711 8.3999 8.7855 8.3999 9.3999C8.3999 10.0143 8.1655 10.6287 7.6967 11.0967Z" fill="#D1D5DB"/>
</svg>
