<svg width="23" height="23" viewBox="0 0 23 23" fill="none" xmlns="http://www.w3.org/2000/svg">
<path d="M9.25999 22.8801C9.82332 22.8801 10.28 22.4234 10.28 21.8601C10.28 21.2968 9.82332 20.8401 9.25999 20.8401C8.69666 20.8401 8.23999 21.2968 8.23999 21.8601C8.23999 22.4234 8.69666 22.8801 9.25999 22.8801Z" fill="white"/>
<path d="M16.74 22.8801C17.3033 22.8801 17.76 22.4234 17.76 21.8601C17.76 21.2968 17.3033 20.8401 16.74 20.8401C16.1766 20.8401 15.72 21.2968 15.72 21.8601C15.72 22.4234 16.1766 22.8801 16.74 22.8801Z" fill="white"/>
<path d="M1.44001 1.4601H3.28961C4.52041 1.4601 5.52001 2.4597 5.52001 3.6905V5.2001V9.6201V14.2509C5.52001 16.9471 7.71301 19.1401 10.4092 19.1401H18.44C18.814 19.1401 19.12 18.8341 19.12 18.4601C19.12 18.0861 18.814 17.7801 18.44 17.7801H10.4092C8.46441 17.7801 6.88001 16.1957 6.88001 14.2509V14.0401H18.78C19.0554 14.0401 19.3036 13.8735 19.409 13.6219L22.809 5.4619C22.8974 5.2511 22.8736 5.0131 22.7478 4.8227C22.622 4.6323 22.4078 4.5201 22.18 4.5201H6.88001V3.6905C6.88001 1.7117 5.26841 0.100098 3.28961 0.100098H1.44001C1.06601 0.100098 0.76001 0.406098 0.76001 0.780098C0.76001 1.1541 1.06601 1.4601 1.44001 1.4601ZM6.88001 9.6201V5.8801H21.16L18.3278 12.6801H6.88001V9.6201Z" fill="white"/>
</svg>
