<svg width="20" height="22" viewBox="0 0 24 24" fill="none" xmlns="http://www.w3.org/2000/svg">
<g clip-path="url(#clip0_3701_11806)">
<path d="M24.0001 22.5888L17.7503 16.339C21.2449 12.065 20.6131 5.76716 16.3391 2.27248C12.065 -1.22219 5.76721 -0.59036 2.27255 3.68375C-1.22212 7.95786 -0.590295 14.2556 3.68376 17.7503C7.36523 20.7604 12.6576 20.7604 16.339 17.7503L22.5889 24L24.0001 22.5888ZM10.0274 18.0117C5.61773 18.0117 2.043 14.437 2.043 10.0273C2.043 5.61767 5.61773 2.04294 10.0274 2.04294C14.4371 2.04294 18.0118 5.61767 18.0118 10.0273C18.0068 14.435 14.435 18.0068 10.0274 18.0117Z" fill="white"/>
</g>
<defs>
<clipPath id="clip0_3701_11806">
<rect width="24" height="24" fill="white"/>
</clipPath>
</defs>
</svg>
