<svg width="20" height="24" viewBox="0 0 20 24" fill="none" xmlns="http://www.w3.org/2000/svg">
<path d="M16.9473 2.26978C16.5953 2.26978 16.3073 2.56678 16.3073 2.92978C16.3073 3.29278 16.5953 3.58978 16.9473 3.58978C17.8817 3.58978 18.6401 4.39168 18.6401 5.37508V19.9512C18.6401 20.9379 17.8817 21.7365 16.9473 21.7365H3.05288C2.11848 21.7398 1.36008 20.9379 1.36008 19.9545V5.37508C1.36008 4.38838 2.11848 3.58978 3.05288 3.58978C3.40488 3.58978 3.69288 3.29278 3.69288 2.92978C3.69288 2.56678 3.40488 2.26978 3.05288 2.26978C1.41448 2.26978 0.0800781 3.66238 0.0800781 5.37508V19.9512C0.0800781 21.6639 1.41448 23.0565 3.05288 23.0565H16.9473C18.5857 23.0565 19.9201 21.6639 19.9201 19.9512V5.37508C19.9201 3.66238 18.5857 2.26978 16.9473 2.26978Z" fill="white"/>
<path d="M11.28 2.26978H8.40001C8.04801 2.26978 7.76001 2.56678 7.76001 2.92978C7.76001 3.29278 8.04801 3.58978 8.40001 3.58978H11.28C11.632 3.58978 11.92 3.29278 11.92 2.92978C11.92 2.56678 11.632 2.26978 11.28 2.26978Z" fill="white"/>
<path d="M6.16013 4.57987V1.27987C6.16013 0.916873 5.87213 0.619873 5.52013 0.619873C5.16813 0.619873 4.88013 0.916873 4.88013 1.27987V4.57987C4.88013 4.94287 5.16813 5.23987 5.52013 5.23987C5.87213 5.23987 6.16013 4.94287 6.16013 4.57987Z" fill="white"/>
<path d="M14.8 4.57987V1.27987C14.8 0.916873 14.512 0.619873 14.16 0.619873C13.808 0.619873 13.52 0.916873 13.52 1.27987V4.57987C13.52 4.94287 13.808 5.23987 14.16 5.23987C14.512 5.23987 14.8 4.94287 14.8 4.57987Z" fill="white"/>
<path d="M14.8 14.1499H11.6C11.248 14.1499 10.96 14.4469 10.96 14.8099V18.1099C10.96 18.4729 11.248 18.7699 11.6 18.7699H14.8C15.152 18.7699 15.44 18.4729 15.44 18.1099V14.8099C15.44 14.4469 15.152 14.1499 14.8 14.1499ZM14.16 17.4499H12.24V15.4699H14.16V17.4499Z" fill="white"/>
<path d="M4.56006 18.1099C4.56006 18.4729 4.84806 18.7699 5.20006 18.7699H8.40006C8.75206 18.7699 9.04006 18.4729 9.04006 18.1099V14.8099C9.04006 14.4469 8.75206 14.1499 8.40006 14.1499H5.20006C4.84806 14.1499 4.56006 14.4469 4.56006 14.8099V18.1099ZM5.84006 15.4699H7.76006V17.4499H5.84006V15.4699Z" fill="white"/>
<path d="M10.96 8.2098V11.5098C10.96 11.8728 11.248 12.1698 11.6 12.1698H14.8C15.152 12.1698 15.44 11.8728 15.44 11.5098V8.2098C15.44 7.8468 15.152 7.5498 14.8 7.5498H11.6C11.248 7.5498 10.96 7.8468 10.96 8.2098ZM12.24 8.86981H14.16V10.8498H12.24V8.86981Z" fill="white"/>
<path d="M4.56006 8.2098V11.5098C4.56006 11.8728 4.84806 12.1698 5.20006 12.1698H8.40006C8.75206 12.1698 9.04006 11.8728 9.04006 11.5098V8.2098C9.04006 7.8468 8.75206 7.5498 8.40006 7.5498H5.20006C4.84806 7.5498 4.56006 7.8468 4.56006 8.2098ZM5.84006 8.86981H7.76006V10.8498H5.84006V8.86981Z" fill="white"/>
</svg>
