<svg width="20" height="22" viewBox="0 0 20 22" fill="none" xmlns="http://www.w3.org/2000/svg">
<path d="M14.76 4.88012C14.76 2.25532 12.6248 0.120117 9.99999 0.120117C7.37519 0.120117 5.23999 2.25532 5.23999 4.88012C5.23999 7.50492 7.37519 9.64012 9.99999 9.64012C12.6248 9.64012 14.76 7.50492 14.76 4.88012ZM6.59999 4.88012C6.59999 3.00672 8.12659 1.48012 9.99999 1.48012C11.8734 1.48012 13.4 3.00672 13.4 4.88012C13.4 6.75352 11.8734 8.28012 9.99999 8.28012C8.12659 8.28012 6.59999 6.75352 6.59999 4.88012Z" fill="white"/>
<path d="M0.47998 18.6977V20.8601C0.47998 21.2341 0.785981 21.5401 1.15998 21.5401H18.84C19.214 21.5401 19.52 21.2341 19.52 20.8601V18.6977C19.52 14.6415 16.2186 11.3401 12.1624 11.3401H7.83758C3.78138 11.3401 0.47998 14.6415 0.47998 18.6977ZM7.83758 12.7001H12.1624C15.4706 12.7001 18.16 15.3895 18.16 18.6977V20.1801H1.83998V18.6977C1.83998 15.3895 4.52938 12.7001 7.83758 12.7001Z" fill="white"/>
</svg>
