<svg width="24" height="21" viewBox="0 0 24 21" fill="none" xmlns="http://www.w3.org/2000/svg">
<path d="M18.399 2.36524H1.6C1.268 2.36524 1 2.63224 1 2.96524V5.36524H19V2.96524C19 2.88636 18.9844 2.80825 18.9542 2.73539C18.924 2.66253 18.8797 2.59635 18.8239 2.54062C18.7681 2.48489 18.7018 2.44071 18.6289 2.41062C18.556 2.38053 18.4779 2.3651 18.399 2.36524ZM2 16.9652C2 17.7352 2.629 18.3652 3.399 18.3652H16.599C17.369 18.3652 17.999 17.7342 17.999 16.9652V6.36524H2V16.9652ZM7 8.36524H13V10.3652H7V8.36524Z" fill="#9CA3AF"/>
</svg>
