<svg width="13" height="14" viewBox="0 0 13 14" fill="none" xmlns="http://www.w3.org/2000/svg">
<path d="M6.30911 5.00562C5.183 5.00562 4.26402 5.92462 4.26402 7.05075C4.26402 8.17688 5.183 9.09588 6.30911 9.09588C7.43521 9.09588 8.3542 8.17688 8.3542 7.05075C8.3542 5.92462 7.43521 5.00562 6.30911 5.00562ZM12.4429 7.05075C12.4429 6.20385 12.4505 5.36463 12.403 4.51927C12.3554 3.53736 12.1314 2.66591 11.4134 1.94789C10.6939 1.22834 9.82397 1.00588 8.84208 0.958315C7.9952 0.910754 7.15599 0.918425 6.31064 0.918425C5.46376 0.918425 4.62456 0.910754 3.77921 0.958315C2.79732 1.00588 1.92589 1.22987 1.20789 1.94789C0.488344 2.66745 0.265884 3.53736 0.218324 4.51927C0.170764 5.36616 0.178435 6.20539 0.178435 7.05075C0.178435 7.89611 0.170764 8.73687 0.218324 9.58223C0.265884 10.5641 0.489878 11.4356 1.20789 12.1536C1.92743 12.8732 2.79732 13.0956 3.77921 13.1432C4.62609 13.1907 5.4653 13.1831 6.31064 13.1831C7.15752 13.1831 7.99673 13.1907 8.84208 13.1432C9.82397 13.0956 10.6954 12.8716 11.4134 12.1536C12.1329 11.434 12.3554 10.5641 12.403 9.58223C12.4521 8.73687 12.4429 7.89764 12.4429 7.05075ZM6.30911 10.1975C4.56779 10.1975 3.16246 8.7921 3.16246 7.05075C3.16246 5.3094 4.56779 3.90404 6.30911 3.90404C8.05043 3.90404 9.45576 5.3094 9.45576 7.05075C9.45576 8.7921 8.05043 10.1975 6.30911 10.1975ZM9.58463 4.51006C9.17807 4.51006 8.84975 4.18174 8.84975 3.77516C8.84975 3.36859 9.17807 3.04027 9.58463 3.04027C9.9912 3.04027 10.3195 3.36859 10.3195 3.77516C10.3196 3.87171 10.3007 3.96732 10.2638 4.05654C10.2269 4.14576 10.1728 4.22682 10.1045 4.29509C10.0363 4.36335 9.95522 4.41748 9.86601 4.45437C9.77679 4.49126 9.68117 4.51018 9.58463 4.51006Z" fill="white"/>
</svg>
