<svg width="176" height="87" viewBox="0 0 176 87" fill="none" xmlns="http://www.w3.org/2000/svg">
<g clip-path="url(#clip0_2823_8694)">
<path d="M55.8391 66.7468L55.9124 57.0058H55.8635L52.2747 66.7468H49.931L46.4399 57.0058H46.4155L46.4887 66.7468H43.3638V52.9775H48.1L51.2494 61.8153H51.3226L54.3255 52.9775H59.1105V66.7468H55.8391Z" fill="white"/>
<path d="M68.1434 66.7466V65.4039H68.0946C67.9725 65.6236 67.8261 65.8433 67.6307 66.0386C67.4354 66.234 67.2157 66.4049 66.9716 66.5513C66.7274 66.6978 66.4345 66.8199 66.1415 66.8931C65.8486 66.9908 65.5068 67.0396 65.1894 67.0396C64.5302 67.0396 63.9931 66.9175 63.5537 66.6978C63.1142 66.4537 62.748 66.1607 62.4551 65.7945C62.1865 65.4283 61.9668 65.0133 61.8447 64.525C61.7227 64.0611 61.6494 63.5729 61.6494 63.0846V57.0789H64.872V62.3278C64.872 62.5963 64.8964 62.8649 64.9208 63.109C64.9697 63.3532 65.0429 63.5729 65.1406 63.7682C65.2626 63.9635 65.3847 64.11 65.58 64.232C65.7509 64.3541 65.995 64.4029 66.288 64.4029C66.8495 64.4029 67.2645 64.2076 67.5575 63.7682C67.8505 63.3532 67.997 62.8649 67.997 62.3034V57.0789H71.1951V66.7711H68.1434V66.7466Z" fill="white"/>
<path d="M73.124 66.7469V64.2567L77.6894 59.496H73.3193V57.0547H81.5711V59.4472L76.8837 64.2811H81.7664V66.7469H73.124Z" fill="white"/>
<path d="M87.1371 53.9785C87.1371 54.2226 87.0883 54.4668 86.9907 54.6621C86.893 54.8574 86.7709 55.0527 86.6 55.2236C86.4291 55.3701 86.2338 55.4921 86.0141 55.5898C85.7944 55.6874 85.5503 55.7363 85.3061 55.7363C84.7934 55.7363 84.354 55.5654 84.0122 55.2236C83.6704 54.8818 83.4751 54.4668 83.4751 53.9785C83.4751 53.7343 83.5239 53.5146 83.6216 53.2949C83.7192 53.0752 83.8413 52.9043 84.0122 52.7334C84.1831 52.5869 84.3784 52.4404 84.5981 52.3428C84.8178 52.2451 85.062 52.1963 85.3061 52.1963C85.5503 52.1963 85.7944 52.2451 86.0141 52.3428C86.2338 52.4404 86.4291 52.5625 86.6 52.709C86.7709 52.8555 86.893 53.0508 86.9907 53.2705C87.0883 53.4902 87.1371 53.7343 87.1371 53.9785ZM83.7192 66.7468V57.0546H86.9174V66.7468H83.7192Z" fill="white"/>
<path d="M99.8572 66.7465H95.9022L92.7285 62.0836H92.6796V66.7465H89.457V52.0251H92.6796V60.9849H92.7285L95.829 57.0543H99.7107L95.9755 61.4244L99.8572 66.7465Z" fill="white"/>
<path d="M100.76 58.3974C101.322 57.8603 102.005 57.4452 102.762 57.1767C103.519 56.9081 104.3 56.7616 105.081 56.7616C105.887 56.7616 106.595 56.8593 107.157 57.0546C107.718 57.2499 108.182 57.5673 108.524 57.9823C108.866 58.3974 109.134 58.9345 109.281 59.5692C109.451 60.204 109.525 60.9852 109.525 61.8641V66.7468H106.595V65.7214H106.546C106.302 66.1121 105.936 66.4294 105.423 66.6492C104.935 66.8689 104.373 66.9909 103.788 66.9909C103.397 66.9909 103.006 66.9421 102.591 66.8445C102.176 66.7468 101.786 66.5759 101.444 66.3318C101.102 66.0876 100.809 65.7947 100.589 65.4041C100.37 65.0134 100.248 64.5252 100.248 63.9637C100.248 63.2557 100.443 62.6942 100.833 62.2791C101.224 61.8397 101.712 61.5223 102.323 61.2782C102.933 61.034 103.592 60.8875 104.349 60.8143C105.081 60.7411 105.814 60.6922 106.497 60.6922V60.5458C106.497 60.0575 106.327 59.7157 105.985 59.496C105.643 59.2762 105.228 59.1542 104.74 59.1542C104.276 59.1542 103.836 59.2518 103.421 59.4471C103.006 59.6424 102.64 59.8866 102.347 60.1551L100.76 58.3974ZM106.62 62.5233H106.204C105.863 62.5233 105.496 62.5477 105.155 62.5721C104.788 62.5965 104.471 62.6697 104.203 62.7674C103.934 62.865 103.69 62.9871 103.519 63.158C103.348 63.3289 103.25 63.573 103.25 63.8416C103.25 64.0125 103.299 64.1834 103.372 64.3054C103.446 64.4275 103.568 64.5496 103.69 64.6228C103.812 64.6961 103.958 64.7449 104.129 64.7937C104.3 64.8181 104.471 64.8425 104.618 64.8425C105.277 64.8425 105.765 64.6716 106.107 64.3054C106.449 63.9392 106.62 63.4754 106.62 62.865V62.5233ZM105.741 55.6142H103.324L105.35 52.8066H108.573L105.741 55.6142Z" fill="white"/>
<path d="M111.966 66.7465V52.0251H115.213V66.7465H111.966Z" fill="white"/>
<path d="M128.006 61.8642C128.006 62.6454 127.859 63.3778 127.566 64.0126C127.273 64.6473 126.883 65.2088 126.394 65.6483C125.906 66.0877 125.32 66.4539 124.685 66.6981C124.026 66.9422 123.343 67.0643 122.61 67.0643C121.878 67.0643 121.194 66.9422 120.535 66.6981C119.876 66.4539 119.314 66.1121 118.826 65.6483C118.338 65.2088 117.947 64.6473 117.679 64.0126C117.386 63.3778 117.239 62.6454 117.239 61.8642C117.239 61.0829 117.386 60.3505 117.679 59.7158C117.972 59.081 118.362 58.5439 118.826 58.1045C119.314 57.665 119.876 57.3232 120.535 57.1035C121.194 56.8594 121.878 56.7617 122.61 56.7617C123.343 56.7617 124.051 56.8838 124.685 57.1035C125.345 57.3476 125.906 57.665 126.394 58.1045C126.883 58.5439 127.273 59.081 127.566 59.7158C127.859 60.3749 128.006 61.0829 128.006 61.8642ZM124.93 61.8642C124.93 61.5468 124.881 61.2538 124.783 60.9609C124.685 60.6679 124.539 60.3993 124.344 60.1796C124.148 59.9599 123.904 59.7646 123.611 59.6181C123.318 59.4716 123.001 59.3984 122.61 59.3984C122.244 59.3984 121.902 59.4716 121.609 59.6181C121.316 59.7646 121.097 59.9355 120.901 60.1796C120.706 60.3993 120.56 60.6679 120.462 60.9609C120.364 61.2538 120.315 61.5712 120.315 61.8642C120.315 62.1571 120.364 62.4745 120.462 62.7675C120.56 63.0604 120.706 63.329 120.901 63.5731C121.097 63.8172 121.341 64.0126 121.609 64.159C121.902 64.3055 122.22 64.3788 122.61 64.3788C122.976 64.3788 123.318 64.3055 123.611 64.159C123.904 64.0126 124.148 63.8172 124.319 63.5731C124.515 63.329 124.661 63.0604 124.759 62.7675C124.856 62.4745 124.93 62.1815 124.93 61.8642Z" fill="white"/>
<path d="M136.014 66.7469H132.571L128.763 57.0547H132.278L134.329 63.329H134.378L136.429 57.0547H139.846L136.014 66.7469Z" fill="white"/>
<path d="M140.921 58.3974C141.482 57.8603 142.166 57.4452 142.923 57.1767C143.68 56.9081 144.461 56.7616 145.242 56.7616C146.048 56.7616 146.756 56.8593 147.317 57.0546C147.879 57.2499 148.343 57.5673 148.684 57.9823C149.026 58.3974 149.295 58.9345 149.441 59.5692C149.612 60.204 149.685 60.9852 149.685 61.8641V66.7468H146.756V65.7214H146.707C146.463 66.1121 146.097 66.4294 145.584 66.6492C145.096 66.8689 144.534 66.9909 143.948 66.9909C143.558 66.9909 143.167 66.9421 142.752 66.8445C142.337 66.7468 141.946 66.5759 141.604 66.3318C141.263 66.0876 140.97 65.7947 140.75 65.4041C140.53 65.0134 140.408 64.5252 140.408 63.9637C140.408 63.2557 140.604 62.6942 140.994 62.2791C141.385 61.8397 141.873 61.5223 142.483 61.2782C143.094 61.034 143.753 60.8875 144.485 60.8143C145.218 60.7411 145.95 60.6922 146.634 60.6922V60.5458C146.634 60.0575 146.463 59.7157 146.121 59.496C145.779 59.2762 145.364 59.1542 144.876 59.1542C144.412 59.1542 143.973 59.2518 143.558 59.4471C143.143 59.6424 142.776 59.8866 142.483 60.1551L140.921 58.3974ZM146.78 62.5233H146.365C146.023 62.5233 145.657 62.5477 145.315 62.5721C144.949 62.5965 144.632 62.6697 144.363 62.7674C144.095 62.865 143.851 62.9871 143.68 63.158C143.509 63.3289 143.411 63.573 143.411 63.8416C143.411 64.0125 143.46 64.1834 143.533 64.3054C143.606 64.4275 143.728 64.5496 143.851 64.6228C143.973 64.6961 144.119 64.7449 144.29 64.7937C144.461 64.8181 144.632 64.8425 144.778 64.8425C145.437 64.8425 145.926 64.6716 146.267 64.3054C146.609 63.9392 146.78 63.4754 146.78 62.865V62.5233ZM145.877 55.6142H143.46L145.486 52.8066H148.709L145.877 55.6142Z" fill="white"/>
<path d="M51.1524 77.8552C51.7139 77.3181 52.3975 76.9031 53.1544 76.6345C53.9112 76.366 54.6923 76.2195 55.4735 76.2195C56.2792 76.2195 56.9872 76.3171 57.5487 76.5124C58.1102 76.7078 58.5742 77.0251 58.916 77.4402C59.2577 77.8552 59.5262 78.3923 59.6727 79.027C59.8436 79.6618 59.9169 80.443 59.9169 81.3219V86.2046H56.9873V85.1793H56.9384C56.6942 85.5699 56.328 85.8873 55.8153 86.107C55.3271 86.3267 54.7655 86.4488 54.1796 86.4488C53.789 86.4488 53.3984 86.4 52.9834 86.3023C52.5683 86.2046 52.1777 86.0337 51.8359 85.7896C51.4941 85.5455 51.2012 85.2525 50.9814 84.8619C50.7617 84.4713 50.6396 83.983 50.6396 83.4215C50.6396 82.7135 50.8351 82.152 51.2257 81.737C51.6163 81.2975 52.1046 80.9801 52.7149 80.736C53.3252 80.4919 53.9843 80.3454 54.7411 80.2721C55.4735 80.1989 56.2059 80.1501 56.8895 80.1501V80.0036C56.8895 79.5153 56.7187 79.1735 56.3769 78.9538C56.0352 78.7341 55.62 78.612 55.1317 78.612C54.6679 78.612 54.2284 78.7097 53.8134 78.905C53.3984 79.1003 53.0323 79.3444 52.7393 79.613L51.1524 77.8552ZM57.0117 82.0055H56.5966C56.2548 82.0055 55.8886 82.0299 55.5468 82.0543C55.1806 82.0787 54.8632 82.152 54.5947 82.2496C54.3261 82.3473 54.082 82.4694 53.9111 82.6403C53.7402 82.8112 53.6426 83.0553 53.6426 83.3238C53.6426 83.4947 53.6913 83.6656 53.7646 83.7877C53.8378 83.9098 53.96 84.0318 54.0821 84.1051C54.2041 84.1783 54.3506 84.2271 54.5215 84.276C54.6924 84.3004 54.8633 84.3248 55.0098 84.3248C55.6689 84.3248 56.1572 84.1539 56.499 83.7877C56.8408 83.4215 57.0117 82.9576 57.0117 82.3473V82.0055Z" fill="white"/>
<path d="M72.7337 86.229H68.7787L65.6049 81.566H65.5561V86.229H62.3335V71.5076H65.5561V80.4674H65.6049L68.7054 76.5368H72.5872L68.8519 80.9068L72.7337 86.229Z" fill="white"/>
<path d="M73.6367 77.8552C74.1982 77.3181 74.8818 76.9031 75.6386 76.6345C76.3955 76.366 77.1767 76.2195 77.9579 76.2195C78.7636 76.2195 79.4716 76.3171 80.0331 76.5124C80.5946 76.7078 81.0584 77.0251 81.4002 77.4402C81.742 77.8552 82.0106 78.3923 82.1571 79.027C82.328 79.6618 82.4012 80.443 82.4012 81.3219V86.2046H79.4716V85.1793H79.4227C79.1786 85.5699 78.8124 85.8873 78.2997 86.107C77.8114 86.3267 77.2499 86.4488 76.664 86.4488C76.2734 86.4488 75.8828 86.4 75.4677 86.3023C75.0527 86.2046 74.6621 86.0337 74.3203 85.7896C73.9785 85.5455 73.6855 85.2525 73.4658 84.8619C73.2461 84.4713 73.124 83.983 73.124 83.4215C73.124 82.7135 73.3193 82.152 73.7099 81.737C74.1006 81.2975 74.5888 80.9801 75.1992 80.736C75.8095 80.4919 76.4687 80.3454 77.2255 80.2721C77.9579 80.1989 78.6903 80.1501 79.3739 80.1501V80.0036C79.3739 79.5153 79.203 79.1735 78.8612 78.9538C78.5194 78.7341 78.1044 78.612 77.6161 78.612C77.1523 78.612 76.7128 78.7097 76.2978 78.905C75.8828 79.1003 75.5166 79.3444 75.2236 79.613L73.6367 77.8552ZM79.496 82.0055H79.0809C78.7392 82.0055 78.3729 82.0299 78.0312 82.0543C77.665 82.0787 77.3476 82.152 77.079 82.2496C76.8105 82.3473 76.5663 82.4694 76.3954 82.6403C76.2245 82.8112 76.1269 83.0553 76.1269 83.3238C76.1269 83.4947 76.1757 83.6656 76.249 83.7877C76.3222 83.9098 76.4443 84.0318 76.5663 84.1051C76.6884 84.1783 76.8349 84.2271 77.0058 84.276C77.1767 84.3004 77.3476 84.3248 77.4941 84.3248C78.1532 84.3248 78.6415 84.1539 78.9833 83.7877C79.3251 83.4215 79.496 82.9576 79.496 82.3473V82.0055Z" fill="white"/>
<path d="M92.1175 86.229V84.9595H92.0687C91.7513 85.4477 91.3119 85.8384 90.726 86.1069C90.14 86.3755 89.5297 86.4975 88.8949 86.4975C88.1625 86.4975 87.5278 86.351 86.9418 86.0581C86.3803 85.7651 85.8921 85.3989 85.5014 84.9106C85.1108 84.4468 84.7934 83.8853 84.5981 83.2749C84.3784 82.6402 84.2808 82.0054 84.2808 81.3218C84.2808 80.6383 84.3784 80.0035 84.5981 79.3932C84.8179 78.7828 85.1108 78.2457 85.5014 77.7575C85.8921 77.2936 86.3803 76.9274 86.9418 76.6588C87.5034 76.3903 88.1381 76.2438 88.8461 76.2438C89.5541 76.2438 90.1644 76.3903 90.6527 76.6588C91.141 76.9274 91.5316 77.2204 91.8001 77.5621H91.849V71.5076H95.0472V86.229H92.1175ZM92.0199 81.3463C92.0199 81.0289 91.971 80.7359 91.849 80.4429C91.7269 80.15 91.5804 79.8814 91.3851 79.6373C91.1898 79.3932 90.9457 79.2223 90.6527 79.0758C90.3598 78.9293 90.0424 78.8561 89.6762 78.8561C89.31 78.8561 88.9682 78.9293 88.6752 79.0758C88.3822 79.2223 88.1381 79.3932 87.9672 79.6373C87.7719 79.857 87.6254 80.1256 87.5278 80.4185C87.4301 80.7115 87.3813 81.0289 87.3813 81.3218C87.3813 81.6148 87.4301 81.9322 87.5278 82.2496C87.6254 82.5425 87.7719 82.8355 87.9672 83.0552C88.1625 83.2993 88.4067 83.4702 88.6752 83.6167C88.9682 83.7632 89.2856 83.8364 89.6762 83.8364C90.0424 83.8364 90.3598 83.7632 90.6527 83.6167C90.9457 83.4702 91.1898 83.2749 91.3851 83.0552C91.5804 82.8111 91.7513 82.5669 91.849 82.2496C91.9466 81.981 92.0199 81.6636 92.0199 81.3463Z" fill="white"/>
<path d="M107.205 81.4925C107.205 81.6146 107.205 81.761 107.205 81.8831C107.205 82.0052 107.205 82.1273 107.181 82.2493H100.15C100.174 82.5179 100.247 82.762 100.394 82.9817C100.54 83.2015 100.711 83.3968 100.931 83.5677C101.151 83.7385 101.395 83.8606 101.639 83.9583C101.908 84.0559 102.176 84.1048 102.469 84.1048C102.982 84.1048 103.397 84.0071 103.763 83.8118C104.105 83.6165 104.398 83.3723 104.618 83.0794L106.839 84.471C106.375 85.1301 105.789 85.6428 105.033 86.009C104.276 86.3752 103.421 86.5461 102.445 86.5461C101.712 86.5461 101.029 86.4241 100.394 86.2043C99.7348 85.9846 99.1733 85.6428 98.685 85.2034C98.1968 84.7639 97.8061 84.2268 97.5376 83.5921C97.269 82.9573 97.1226 82.2249 97.1226 81.4193C97.1226 80.638 97.269 79.9056 97.5376 79.2709C97.8061 78.6361 98.1723 78.0746 98.6362 77.6352C99.1001 77.1957 99.6616 76.8295 100.296 76.5854C100.931 76.3412 101.615 76.2192 102.371 76.2192C103.079 76.2192 103.739 76.3412 104.349 76.5854C104.935 76.8295 105.448 77.1713 105.887 77.6352C106.326 78.099 106.644 78.6361 106.888 79.2953C107.083 79.93 107.205 80.6624 107.205 81.4925ZM104.276 80.2718C104.276 79.7591 104.105 79.3197 103.787 78.9779C103.47 78.6117 102.982 78.4408 102.347 78.4408C102.03 78.4408 101.761 78.4896 101.493 78.5873C101.224 78.6849 101.004 78.807 100.809 78.9779C100.614 79.1488 100.467 79.3441 100.345 79.5638C100.223 79.7835 100.174 80.0277 100.15 80.2718H104.276ZM102.787 75.0961H100.37L102.396 72.2886H105.618L102.787 75.0961Z" fill="white"/>
<path d="M121.56 86.2288V80.9311C121.56 80.6625 121.536 80.394 121.511 80.1498C121.463 79.9057 121.389 79.686 121.292 79.4907C121.194 79.3198 121.048 79.1733 120.877 79.0512C120.706 78.9291 120.462 78.8803 120.193 78.8803C119.925 78.8803 119.68 78.9291 119.485 79.0512C119.29 79.1733 119.119 79.3198 118.972 79.5151C118.826 79.7104 118.728 79.9301 118.68 80.1987C118.606 80.4428 118.582 80.7113 118.582 80.9799V86.2044H115.384V80.6869C115.384 80.1254 115.262 79.686 115.042 79.3686C114.822 79.0512 114.48 78.8803 113.992 78.8803C113.479 78.8803 113.089 79.0756 112.82 79.4907C112.552 79.8813 112.405 80.394 112.405 80.9799V86.2288H109.183V76.5366H112.283V77.8794H112.332C112.454 77.6841 112.601 77.4643 112.771 77.269C112.942 77.0737 113.162 76.9028 113.406 76.7563C113.65 76.6099 113.919 76.4878 114.236 76.3901C114.529 76.2925 114.871 76.2437 115.237 76.2437C115.945 76.2437 116.531 76.3901 117.019 76.6831C117.508 76.9761 117.874 77.3667 118.167 77.9038C118.484 77.3911 118.899 77.0005 119.412 76.7075C119.925 76.4146 120.535 76.2681 121.267 76.2681C121.927 76.2681 122.488 76.3901 122.927 76.6343C123.367 76.8784 123.733 77.1958 124.002 77.562C124.27 77.9526 124.466 78.3676 124.588 78.8559C124.71 79.3442 124.783 79.7836 124.783 80.2475V86.2532H121.56V86.2288Z" fill="white"/>
<path d="M130.642 73.436C130.642 73.6801 130.593 73.9243 130.496 74.1196C130.398 74.3149 130.276 74.5102 130.105 74.6811C129.934 74.8276 129.739 74.9496 129.519 75.0473C129.299 75.145 129.055 75.1938 128.811 75.1938C128.298 75.1938 127.859 75.0229 127.517 74.6811C127.175 74.3393 126.98 73.9243 126.98 73.436C126.98 73.1919 127.029 72.9721 127.126 72.7524C127.224 72.5327 127.346 72.3618 127.517 72.1909C127.688 72.0444 127.883 71.8979 128.103 71.8003C128.323 71.7026 128.567 71.6538 128.811 71.6538C129.055 71.6538 129.299 71.7026 129.519 71.8003C129.739 71.8979 129.934 72.02 130.105 72.1665C130.276 72.313 130.398 72.5083 130.496 72.728C130.593 72.9477 130.642 73.1919 130.642 73.436ZM127.224 86.2287V76.5365H130.398V86.2287H127.224Z" fill="white"/>
<path d="M132.791 77.8552C133.353 77.3181 134.036 76.9031 134.793 76.6345C135.55 76.366 136.331 76.2195 137.112 76.2195C137.918 76.2195 138.626 76.3171 139.187 76.5124C139.749 76.7078 140.213 77.0251 140.555 77.4402C140.896 77.8552 141.165 78.3923 141.311 79.027C141.482 79.6618 141.555 80.443 141.555 81.3219V86.2046H138.626V85.1793H138.577C138.333 85.5699 137.967 85.8873 137.454 86.107C136.966 86.3267 136.404 86.4488 135.818 86.4488C135.428 86.4488 135.037 86.4 134.622 86.3023C134.207 86.2046 133.816 86.0337 133.475 85.7896C133.133 85.5455 132.84 85.2525 132.62 84.8619C132.4 84.4713 132.278 83.983 132.278 83.4215C132.278 82.7135 132.474 82.152 132.864 81.737C133.255 81.2975 133.743 80.9801 134.353 80.736C134.964 80.4919 135.623 80.3454 136.355 80.2721C137.088 80.1989 137.82 80.1501 138.504 80.1501V80.0036C138.504 79.5153 138.333 79.1735 137.991 78.9538C137.649 78.7341 137.234 78.612 136.746 78.612C136.282 78.612 135.843 78.7097 135.428 78.905C135.013 79.1003 134.646 79.3444 134.353 79.613L132.791 77.8552ZM138.65 82.0055H138.235C137.893 82.0055 137.527 82.0299 137.185 82.0543C136.819 82.0787 136.502 82.152 136.233 82.2496C135.965 82.3473 135.721 82.4694 135.55 82.6403C135.379 82.8112 135.281 83.0553 135.281 83.3238C135.281 83.4947 135.33 83.6656 135.403 83.7877C135.476 83.9098 135.599 84.0318 135.721 84.1051C135.843 84.1783 135.989 84.2271 136.16 84.276C136.331 84.3004 136.502 84.3248 136.648 84.3248C137.308 84.3248 137.796 84.1539 138.138 83.7877C138.479 83.4215 138.65 82.9576 138.65 82.3473V82.0055Z" fill="white"/>
<path d="M21.0241 0V52.6113C18.4118 50.6094 13.2361 51 8.40224 53.8076C2.71387 57.079 -0.33783 62.4256 1.56643 65.7458C3.47069 69.0661 9.62292 69.0905 15.3113 65.7947C20.2184 62.9627 23.1481 58.5927 22.6354 55.3212V7.51939C28.0064 25.8052 42.9475 38.7444 63.6746 40.3069C98.9279 42.9679 135.133 -4.63858 176.099 23.4371C142.311 -22.7291 66.9461 44.1886 21.0241 0Z" fill="url(#paint0_linear_2823_8694)"/>
</g>
<defs>
<linearGradient id="paint0_linear_2823_8694" x1="-4.96357" y1="38.7804" x2="167.149" y2="-1.81221" gradientUnits="userSpaceOnUse">
<stop stop-color="white"/>
<stop offset="0.3021" stop-color="white"/>
<stop offset="0.6427" stop-color="white"/>
<stop offset="1" stop-color="white"/>
</linearGradient>
<clipPath id="clip0_2823_8694">
<rect width="176" height="87" fill="white"/>
</clipPath>
</defs>
</svg>
