<svg width="176" height="87" viewBox="0 0 176 87" fill="none" xmlns="http://www.w3.org/2000/svg">
<g clip-path="url(#clip0_2823_8713)">
<path fill-rule="evenodd" clip-rule="evenodd" d="M104.577 -1C104.514 1.46667 104.072 3.11111 103.219 4.37606L102.146 2.54189C102.146 2.54189 101.957 2.76325 101.925 3.17436C101.925 3.58547 102.336 5.3248 102.494 5.73591C102.651 6.11539 103.977 6.81112 103.977 6.81112C103.977 6.81112 104.956 9.43592 106.029 11.2068C107.007 13.0411 108.301 16.2983 108.301 16.2983C108.301 16.2983 108.238 16.994 107.67 17.8479C107.102 18.765 105.461 21.8009 105.461 21.8009C105.461 21.8009 105.398 20.8205 104.829 18.4804C104.261 16.2034 104.261 15.5077 102.998 14.6539C101.641 13.8 94.5078 10.7009 93.7187 10.4795C93.3716 10.4163 92.8035 9.49915 92.0774 9.27778C89.7417 8.58208 88.1004 8.83504 85.7016 9.30941C85.4176 9.37266 85.4806 9.72052 85.5437 9.97351C85.6382 10.3214 88.1004 10.8906 89.6471 11.7445C89.8362 11.8709 89.2051 12.1872 88.7 12.4718C88.416 12.5983 88.1635 12.7564 88.1004 12.8197C87.9425 12.9778 88.5106 12.9462 88.858 12.9145C88.9526 12.9145 89.0156 12.9145 89.0471 12.9145C89.9942 12.9145 90.6572 12.6615 91.1938 12.4718C91.6354 12.3137 92.0144 12.1556 92.4561 12.1872C93.4346 12.2504 95.7074 14.3692 97.2856 15.1599C98.9268 16.0137 101.263 17.3419 101.263 17.3419C101.263 18.1325 101.294 18.9231 101.357 19.6821C101.452 21.6744 101.578 23.5086 100.852 24.9949C100.852 24.9949 98.8322 24.4573 97.7906 23.6351C96.97 23.0026 96.4965 21.7693 96.4965 21.7693L94.2553 22.0855C94.2553 22.0855 93.7817 21.7376 93.4662 21.5795C93.0245 22.0539 92.614 22.7812 91.7619 23.0659C89.1421 23.9829 87.8794 26.5445 86.3012 28.6633C85.0386 30.2761 75.0329 38.8463 68.8146 28.0308C63.9224 36.7908 73.1391 47.4164 82.0086 42.5461C80.462 44.0326 79.3254 44.6651 77.7472 45.2974C84.3444 45.7087 92.7086 40.7118 94.6973 36.9486C95.2654 38.3719 94.1292 39.9846 91.5094 41.9139C96.4016 42.0401 102.62 36.9486 99.7159 29.0428C100.505 29.1693 100.694 29.2641 101.925 31.3195C103.188 33.3754 104.608 38.1822 104.608 38.1822C102.778 39.0361 99.9369 39.5736 98.7373 41.8504C98.6743 42.0717 98.5163 42.1983 98.4533 42.4195C93.7817 43.6847 87.5323 46.3094 86.0487 46.8154C85.3857 47.037 84.0919 46.9104 82.6713 46.7522C82.5767 46.7522 82.5137 46.7207 82.4188 46.7207C80.7775 46.531 78.9153 46.3409 77.5266 46.6888C74.8434 47.3214 68.4675 48.3965 68.4675 48.3965C67.5523 47.3214 66.6999 47.037 64.7115 47.7008C64.396 47.7958 64.0485 47.7958 63.6699 47.8274C62.8178 47.8589 61.7446 47.9224 60.1664 48.7447C58.9668 49.3138 57.4832 51.559 58.1777 51.7172C59.3454 51.8438 60.1345 51.7487 60.703 51.6541C60.766 51.6541 60.7976 51.6541 60.8606 51.6222C61.9971 51.4009 64.5536 51.4959 66.2582 51.6222C67.7733 51.7487 68.8146 51.4009 69.7932 51.0846C69.9512 51.0215 70.1088 50.9899 70.2667 50.9265C71.4029 50.5786 76.99 50.5786 79.3254 50.7052C81.6612 50.9265 86.6799 51.6222 86.6799 51.6222C86.6799 51.6222 90.1522 51.1162 92.9296 50.4839C94.1922 50.1992 96.6226 49.8513 98.8007 49.6301C99.8739 51.4009 101.705 52.9504 104.261 53.9309C107.228 55.0694 113.194 57.3147 114.33 57.8838C115.466 58.3898 119.506 60.2241 121.905 61.4889C124.241 62.6906 132.164 63.0385 133.395 63.8292C133.332 64.3983 133.963 65.9479 135.73 65.5369C136.235 65.6 137.214 65.6635 137.719 65.7582C137.908 65.7897 138.098 65.8213 138.287 65.8532C138.792 65.9479 139.329 66.0429 139.991 65.9794C141.633 65.8532 143.874 64.7146 143.968 63.9873C143.968 63.9239 144 63.8923 144 63.8608V63.8292C143.968 63.4498 143.306 63.7342 141.633 63.4179C139.707 63.07 139.234 62.7222 137.025 61.8683C134.752 61.0779 133.553 61.0145 132.132 60.7301C130.775 60.3822 128.155 59.2437 125.535 58.3898C122.852 57.4728 120.801 55.8283 120.359 55.2907C120.011 54.7213 116.319 51.6856 113.636 49.9779C113.099 49.6301 112.531 49.2822 112.026 48.9344C109.943 47.6061 108.175 46.4675 108.049 46.6257C107.828 46.9104 109.185 43.4315 111.394 40.6172C113.667 37.8025 111.899 32.5531 111.899 32.5531C111.899 32.5531 113.036 30.9401 112.815 28.9479C112.026 28.3787 109.848 27.2402 108.364 26.4812C107.922 26.2282 108.87 24.2359 109.943 22.0223C111.079 19.6505 112.341 16.994 112.12 16.0137C111.142 11.6179 107.733 9.84703 105.966 6.17864C105.177 4.62906 105.524 1.94104 105.524 1.94104L105.114 -0.620513L104.577 -1Z" fill="white"/>
<path d="M54.8533 15.6012C47.1029 18.6339 37.6579 21.6666 22 21.0786C55.2614 33.1785 53.1275 13.6826 83 10.7737C80.3012 10.2476 77.8538 10 75.5944 10C67.7185 10.031 61.9762 12.8161 54.8533 15.6012Z" fill="white"/>
<path d="M27 27.713C49.2176 45.7455 58.5723 20.0689 80 12C59.1414 15.136 54.8115 34.5078 27 27.713Z" fill="white"/>
<path fill-rule="evenodd" clip-rule="evenodd" d="M50.1031 63.2095C50.5366 63.1745 50.9367 63.1046 51.3035 63.0699C51.6703 63.035 52.1038 63 52.5373 63C53.0709 63 53.6043 63.035 54.1046 63.1395C54.638 63.2441 55.1051 63.4186 55.5052 63.6627C55.9387 63.9072 56.2721 64.2559 56.5056 64.7095C56.7724 65.1627 56.9057 65.7209 56.9057 66.3837C56.9057 66.8023 56.8722 67.1513 56.7724 67.4654C56.6722 67.7791 56.5388 68.0582 56.4055 68.2677C56.2386 68.5118 56.1052 68.6863 55.9052 68.8605C55.7387 69.035 55.5718 69.1745 55.405 69.2441L55.1718 69.4186L57.7058 74.0232C57.5058 74.0582 57.3058 74.0582 57.1057 74.0931C56.9057 74.1281 56.6722 74.1281 56.439 74.1281C56.0721 74.1281 55.7052 74.0931 55.3383 74.0232L52.604 68.9654L52.9375 68.7909C53.0709 68.7209 53.2375 68.6163 53.4378 68.5118C53.6379 68.4072 53.8044 68.2677 54.0044 68.0931C54.1713 67.9186 54.3381 67.7095 54.4715 67.5C54.6048 67.2559 54.6715 66.9768 54.6715 66.6627C54.6715 66.035 54.5047 65.5467 54.1381 65.2677C53.8044 64.9536 53.3376 64.8141 52.7707 64.8141C52.5707 64.8141 52.3706 64.8141 52.2039 64.849V74.0582C52.0371 74.0931 51.8704 74.0931 51.6703 74.1281C51.5036 74.1281 51.3369 74.1627 51.1702 74.1627C51.0034 74.1627 50.8367 74.1627 50.6366 74.1627C50.4365 74.1627 50.2698 74.1281 50.0697 74.0931V63.2095H50.1031ZM81.4818 63.0699C81.1149 63.1046 80.7148 63.1395 80.2813 63.2095V74.1281C80.4813 74.1627 80.6813 74.1627 80.8482 74.1977C81.0147 74.1977 81.2151 74.1977 81.3816 74.1977C81.5485 74.1977 81.715 74.1977 81.8818 74.1627C82.0487 74.1627 82.2152 74.1281 82.4153 74.0931V64.8837C82.5821 64.849 82.7822 64.849 82.9822 64.849C83.5491 64.849 83.9827 64.9886 84.3496 65.3023C84.683 65.6163 84.883 66.0699 84.883 66.6977C84.883 67.0118 84.8163 67.2909 84.683 67.535C84.5496 67.7791 84.4163 67.9886 84.2162 68.1281C84.0494 68.3023 83.8493 68.4418 83.6493 68.5467C83.4493 68.6513 83.2824 68.7559 83.1491 68.8258L82.8157 69L85.5498 74.0582C85.9167 74.1281 86.2835 74.1627 86.6504 74.1627C86.8836 74.1627 87.0837 74.1627 87.3172 74.1281C87.5172 74.0931 87.7508 74.0931 87.9173 74.0582L85.3832 69.4536L85.6164 69.2791C85.7833 69.1745 85.9502 69.035 86.1167 68.8954C86.2835 68.7209 86.4504 68.5118 86.6169 68.3023C86.7503 68.0582 86.8836 67.8141 86.9838 67.5C87.0837 67.1863 87.1172 66.8373 87.1172 66.4186C87.1172 65.7559 86.9838 65.1977 86.7171 64.7441C86.4501 64.2909 86.1167 63.9418 85.7166 63.6977C85.283 63.4536 84.8163 63.2441 84.3161 63.1745C83.7826 63.0699 83.2824 63.035 82.749 63.035C82.2819 63.035 81.8483 63.035 81.4818 63.0699ZM90.4185 63.0699C89.9515 63.1046 89.5182 63.1395 89.0512 63.1745V74.1281C89.2512 74.1627 89.4512 74.1627 89.6181 74.1977C89.8181 74.1977 89.985 74.1977 90.1183 74.1977C90.2852 74.1977 90.4517 74.1977 90.6186 74.1977C90.7851 74.1977 90.9855 74.1627 91.152 74.1281V70.6395C91.2522 70.6395 91.352 70.6395 91.4522 70.6745C91.552 70.6745 91.6854 70.6745 91.8191 70.6745C92.2858 70.6745 92.7861 70.6395 93.2528 70.535C93.7531 70.4304 94.1866 70.2559 94.5867 69.9418C94.9868 69.6627 95.3201 69.2791 95.5537 68.7909C95.8204 68.3023 95.9206 67.6745 95.9206 66.8722C95.9206 66.0699 95.7872 65.4418 95.5537 64.9536C95.287 64.4654 94.9868 64.0814 94.5867 63.8023C94.1866 63.5232 93.7196 63.349 93.2193 63.2441C92.7194 63.1395 92.2192 63.1046 91.7524 63.1046C91.352 63.035 90.8853 63.035 90.4185 63.0699ZM107.225 63.0699C106.858 63.1046 106.458 63.1395 106.024 63.2095V74.1281C106.224 74.1627 106.424 74.1627 106.591 74.1977C106.791 74.1977 106.958 74.1977 107.125 74.1977C107.292 74.1977 107.458 74.1977 107.625 74.1627C107.792 74.1627 107.958 74.1281 108.158 74.0931V64.8837C108.325 64.849 108.525 64.849 108.725 64.849C109.292 64.849 109.726 64.9886 110.093 65.3023C110.426 65.6163 110.626 66.0699 110.626 66.6977C110.626 67.0118 110.559 67.2909 110.426 67.535C110.293 67.7791 110.159 67.9886 109.959 68.1281C109.792 68.3023 109.592 68.4418 109.392 68.5467C109.192 68.6513 109.025 68.7559 108.892 68.8258L108.559 69L111.293 74.0582C111.66 74.1281 112.027 74.1627 112.394 74.1627C112.627 74.1627 112.827 74.1627 113.06 74.1281C113.26 74.0931 113.494 74.0931 113.661 74.0582L111.126 69.4536L111.36 69.2791C111.526 69.1745 111.693 69.035 111.86 68.8954C112.027 68.7209 112.194 68.5118 112.36 68.3023C112.493 68.0582 112.627 67.8141 112.727 67.5C112.827 67.1863 112.86 66.8373 112.86 66.4186C112.86 65.7559 112.727 65.1977 112.46 64.7441C112.194 64.2909 111.86 63.9418 111.46 63.6977C111.026 63.4536 110.559 63.2441 110.059 63.1745C109.559 63.1046 109.026 63.035 108.492 63.035C108.025 63.035 107.625 63.035 107.225 63.0699ZM58.8732 74.1281V63.2095C59.2397 63.1395 59.5735 63.1046 59.94 63.1046C60.3069 63.1046 60.6403 63.1395 61.0072 63.2095V74.1281C60.6403 74.1977 60.2737 74.2327 59.94 74.2327C59.6066 74.2327 59.2397 74.1977 58.8732 74.1281ZM62.7411 63.1395C62.5411 63.1745 62.3411 63.1745 62.1742 63.2095L65.5091 74.1281C65.7423 74.1627 65.9423 74.1977 66.1092 74.1977C66.3092 74.1977 66.4761 74.2327 66.6761 74.2327C66.8761 74.2327 67.0762 74.2327 67.2762 74.1977C67.4762 74.1977 67.6766 74.1627 67.8766 74.1281L71.2443 63.2095C71.0443 63.1745 70.8778 63.1745 70.6777 63.1395C70.5109 63.1395 70.3108 63.1395 70.144 63.1395C69.9439 63.1395 69.7771 63.1395 69.6106 63.1395C69.4437 63.1395 69.2437 63.1745 69.0436 63.2095L66.7428 71.8258L64.4419 63.2095C64.0418 63.1395 63.6414 63.1046 63.2749 63.1046C63.1415 63.1395 62.9747 63.1395 62.7411 63.1395ZM99.6887 63.1395C99.4886 63.1395 99.3218 63.1745 99.1218 63.2095L95.8204 74.1281C96.1538 74.1977 96.5207 74.2327 96.8876 74.2327C97.221 74.2327 97.5543 74.1977 97.8881 74.1281L98.4882 71.9304H101.956L102.523 74.1281C102.856 74.1977 103.223 74.2327 103.59 74.2327C103.957 74.2327 104.357 74.1977 104.757 74.1281L101.489 63.2095C101.256 63.1745 101.056 63.1745 100.889 63.1395C100.689 63.1395 100.522 63.1046 100.322 63.1046C100.089 63.1395 99.8887 63.1395 99.6887 63.1395ZM114.828 63.2095C115.028 63.1745 115.195 63.1745 115.361 63.1395C115.528 63.1395 115.728 63.1395 115.895 63.1395C116.061 63.1395 116.228 63.1395 116.395 63.1395C116.562 63.1395 116.762 63.1745 116.929 63.2095V74.1627C116.729 74.1977 116.562 74.1977 116.395 74.2327C116.228 74.2327 116.061 74.2327 115.861 74.2327C115.695 74.2327 115.528 74.2327 115.328 74.2327C115.161 74.2327 114.961 74.1977 114.794 74.1627V63.2095H114.828ZM120.73 63.1395C120.53 63.1395 120.33 63.1745 120.096 63.2095L117.262 68.6163L120.33 74.0931C120.563 74.1281 120.763 74.1627 120.963 74.1627C121.163 74.1627 121.33 74.1627 121.497 74.1627C121.664 74.1627 121.864 74.1627 122.064 74.1281C122.264 74.0931 122.497 74.0931 122.697 74.0582L119.596 68.4072L122.464 63.1395C122.231 63.1046 122.031 63.1046 121.831 63.0699C121.63 63.035 121.43 63.035 121.264 63.035C121.097 63.1395 120.897 63.1395 120.73 63.1395ZM72.4448 63.2095V74.1281H78.4806C78.5473 73.8141 78.5805 73.5 78.5805 73.1863C78.5805 72.8722 78.5473 72.5582 78.4806 72.2441H74.5792V69.349H77.6135C77.6802 69.035 77.7137 68.7209 77.7137 68.4072C77.7137 68.0931 77.6802 67.7791 77.6135 67.4654H74.5792V65.0931H78.3805C78.4471 64.7791 78.4806 64.4654 78.4806 64.1513C78.4806 63.8373 78.4471 63.5232 78.3805 63.2095H72.4448ZM91.1855 64.9186V68.7909C91.3188 68.8258 91.4187 68.8258 91.5189 68.8258H91.8858C92.119 68.8258 92.3525 68.7909 92.586 68.7209C92.8192 68.6513 93.0193 68.5467 93.2193 68.4072C93.3862 68.2677 93.553 68.0582 93.6529 67.8141C93.7531 67.5699 93.8197 67.2559 93.8197 66.9072C93.8197 66.5232 93.7531 66.2095 93.6529 65.9654C93.553 65.7209 93.3862 65.5118 93.2193 65.3373C93.0528 65.1977 92.8192 65.0582 92.586 64.9886C92.3525 64.9186 92.119 64.8837 91.8858 64.8837C91.7856 64.8837 91.6854 64.8837 91.5856 64.8837C91.5189 64.8837 91.3855 64.8837 91.1855 64.9186ZM101.456 70.1163L100.256 65.5467L98.9884 70.1163H101.456ZM67.3429 78.6281C67.7098 78.2095 68.1433 77.8605 68.6436 77.6513C69.1435 77.4072 69.7439 77.3023 70.3775 77.3023C70.8443 77.3023 71.2443 77.3373 71.6112 77.4072C71.9446 77.4768 72.2448 77.5467 72.5115 77.6513C72.5115 77.8605 72.4448 78.035 72.4117 78.2095C72.345 78.3837 72.2783 78.5582 72.2116 78.7327C72.078 78.6977 71.9781 78.6627 71.8447 78.6281C71.7446 78.5931 71.6112 78.5582 71.4779 78.5232C71.3445 78.4886 71.2111 78.4886 71.0443 78.4536C70.8778 78.4536 70.7109 78.4186 70.4774 78.4186C69.5771 78.4186 68.8768 78.7327 68.3765 79.3954C67.8766 80.0232 67.6096 80.9654 67.6096 82.1513C67.6096 82.7791 67.6766 83.3023 67.8099 83.7559C67.9433 84.2095 68.1433 84.5931 68.41 84.8722C68.6767 85.1513 68.977 85.3954 69.3439 85.535C69.7104 85.6745 70.1108 85.7441 70.544 85.7441C70.9109 85.7441 71.2112 85.7095 71.4779 85.6395C71.7446 85.5699 72.0113 85.5 72.2783 85.3954C72.4448 85.7791 72.5782 86.1281 72.6117 86.4768C72.2783 86.6163 71.9114 86.7559 71.5445 86.8258C71.1776 86.8954 70.7776 86.9304 70.344 86.9304C69.7104 86.9304 69.1103 86.8258 68.5769 86.5814C68.0431 86.3722 67.6096 86.0582 67.2762 85.6395C66.9096 85.2209 66.6426 84.7327 66.4426 84.1395C66.2425 83.5467 66.1427 82.8837 66.1427 82.1513C66.1427 81.4186 66.2425 80.7209 66.4426 80.1281C66.7093 79.5699 66.9763 79.0467 67.3429 78.6281ZM84.4494 77.9654C83.9492 78.4186 83.6825 79.0467 83.6825 79.8141C83.6825 80.1281 83.716 80.4418 83.8158 80.6513C83.8825 80.8954 84.0159 81.1046 84.1492 81.2791C84.2829 81.4536 84.4829 81.6281 84.683 81.7327C84.883 81.8722 85.1165 81.9768 85.3497 82.0814L86.05 82.3954C86.3167 82.5 86.5838 82.6395 86.7838 82.7441C86.9838 82.849 87.1839 82.9536 87.3172 83.0931C87.4506 83.2327 87.5508 83.3722 87.6506 83.5467C87.7173 83.7209 87.7508 83.9304 87.7508 84.1745C87.7508 84.6627 87.5839 85.0467 87.2505 85.3605C86.9171 85.6395 86.4169 85.7791 85.7166 85.7791C85.283 85.7791 84.9162 85.7441 84.6163 85.6745C84.3161 85.6046 84.0159 85.5 83.7491 85.3954C83.6825 85.5699 83.6158 85.7791 83.5491 85.9886C83.4824 86.1977 83.4493 86.3722 83.4493 86.5814C83.6158 86.6513 83.7826 86.6863 83.9492 86.7559C84.116 86.8258 84.2829 86.8605 84.4829 86.8954C84.6495 86.9304 84.8495 86.9654 85.0499 86.9654C85.2499 86.9654 85.4831 87 85.7501 87C86.817 87 87.6506 86.7559 88.2175 86.2327C88.818 85.7095 89.1178 85.0118 89.1178 84.1046C89.1178 83.7209 89.0847 83.4072 88.9845 83.1281C88.8846 82.849 88.7513 82.6046 88.5509 82.3954C88.3844 82.1863 88.1508 82.0118 87.8841 81.8722C87.6174 81.7327 87.3172 81.5582 86.9838 81.4186L86.2835 81.1395C86.1167 81.0699 85.9502 81 85.7833 80.8954C85.6164 80.7909 85.4831 80.7209 85.3832 80.6163C85.2831 80.5118 85.1832 80.3722 85.1165 80.2327C85.0499 80.0931 85.0163 79.9186 85.0163 79.7441C85.0163 79.2909 85.1497 78.9768 85.4499 78.7327C85.7166 78.5232 86.1502 78.3837 86.6504 78.3837C87.017 78.3837 87.3507 78.4186 87.6506 78.4886C87.9508 78.5582 88.2175 78.6281 88.4175 78.7327C88.5509 78.3837 88.6511 78.035 88.6843 77.6513C88.4175 77.5467 88.0842 77.4418 87.7508 77.4072C87.3839 77.3373 87.017 77.3023 86.6169 77.3023C85.6831 77.3023 84.9497 77.5118 84.4494 77.9654ZM91.4854 78.6281C91.8523 78.2095 92.2858 77.8605 92.7861 77.6513C93.2863 77.4072 93.8864 77.3023 94.52 77.3023C94.9868 77.3023 95.3868 77.3373 95.7537 77.4072C96.0871 77.4768 96.3873 77.5467 96.654 77.6513C96.654 77.8605 96.5874 78.035 96.5542 78.2095C96.4875 78.3837 96.4208 78.5582 96.3542 78.7327C96.2205 78.6977 96.1206 78.6627 95.9873 78.6281C95.8871 78.5931 95.7537 78.5582 95.6204 78.5232C95.487 78.4886 95.3537 78.4886 95.1868 78.4536C95.0203 78.4536 94.8534 78.4186 94.6199 78.4186C93.7196 78.4186 93.0193 78.7327 92.5194 79.3954C92.0191 80.0232 91.7524 80.9654 91.7524 82.1513C91.7524 82.7791 91.8191 83.3023 91.9525 83.7559C92.0858 84.2095 92.2858 84.5931 92.5525 84.8722C92.8193 85.1513 93.1195 85.3954 93.4864 85.535C93.8529 85.6745 94.2533 85.7441 94.6866 85.7441C95.0534 85.7441 95.3537 85.7095 95.6204 85.6395C95.8871 85.5699 96.1538 85.5 96.4208 85.3954C96.5873 85.7791 96.7207 86.1281 96.7542 86.4768C96.4208 86.6163 96.0539 86.7559 95.687 86.8258C95.3201 86.8954 94.9201 86.9304 94.4865 86.9304C93.8529 86.9304 93.2528 86.8258 92.7194 86.5814C92.1856 86.3722 91.7524 86.0582 91.4187 85.6395C91.0521 85.2209 90.7851 84.7327 90.5851 84.1395C90.385 83.5467 90.2852 82.8837 90.2852 82.1513C90.2852 81.4186 90.385 80.7209 90.5851 80.1281C90.8518 79.5699 91.152 79.0467 91.4854 78.6281ZM107.592 78.6627C107.892 78.2441 108.292 77.8954 108.759 77.6513C109.226 77.4072 109.792 77.3023 110.459 77.3023C111.093 77.3023 111.66 77.4072 112.16 77.6513C112.627 77.8954 113.027 78.2441 113.327 78.6627C113.627 79.0814 113.861 79.6046 114.027 80.1977C114.161 80.7909 114.261 81.4186 114.261 82.1513C114.261 82.849 114.194 83.5118 114.027 84.1046C113.861 84.6977 113.661 85.1863 113.327 85.6395C113.027 86.0582 112.627 86.4072 112.16 86.6513C111.693 86.8954 111.126 87 110.459 87C109.826 87 109.259 86.8954 108.759 86.6513C108.292 86.4072 107.892 86.0931 107.592 85.6395C107.292 85.2209 107.058 84.6977 106.891 84.1046C106.725 83.5118 106.658 82.8837 106.658 82.1513C106.658 81.4536 106.725 80.7909 106.891 80.1977C107.058 79.6046 107.292 79.0814 107.592 78.6627ZM116.695 78.6627C116.995 78.2441 117.395 77.8954 117.862 77.6513C118.329 77.4072 118.896 77.3023 119.563 77.3023C120.23 77.3023 120.763 77.4072 121.264 77.6513C121.73 77.8954 122.13 78.2441 122.431 78.6627C122.731 79.0814 122.964 79.6046 123.131 80.1977C123.264 80.7909 123.364 81.4186 123.364 82.1513C123.364 82.849 123.297 83.5118 123.131 84.1046C122.998 84.6977 122.764 85.1863 122.431 85.6395C122.13 86.0582 121.73 86.4072 121.264 86.6513C120.797 86.8954 120.23 87 119.563 87C118.896 87 118.362 86.8954 117.862 86.6513C117.395 86.4072 116.995 86.0931 116.695 85.6395C116.395 85.2209 116.162 84.6977 115.995 84.1046C115.828 83.5118 115.761 82.8837 115.761 82.1513C115.761 81.4536 115.828 80.7909 115.995 80.1977C116.162 79.6046 116.395 79.0814 116.695 78.6627ZM43.0337 77.3373C42.6336 77.3722 42.3001 77.4072 42 77.4418V86.7909C42.2667 86.8258 42.6002 86.8605 43.0004 86.8954C43.3672 86.9304 43.7673 86.9304 44.1675 86.9304C45.7348 86.9304 46.9352 86.5467 47.7022 85.7441C48.5025 84.9418 48.9026 83.7559 48.9026 82.1163C48.9026 80.5467 48.5025 79.3605 47.7355 78.5232C46.9686 77.6863 45.7681 77.2677 44.2008 77.2677C43.834 77.3023 43.4339 77.3373 43.0337 77.3373ZM52.4373 77.4418C52.5373 77.4072 52.6707 77.4072 52.8041 77.4072C52.9375 77.4072 53.0709 77.4072 53.2043 77.4072C53.3041 77.4072 53.4378 77.4072 53.5712 77.4072C53.7045 77.4072 53.8044 77.4418 53.9377 77.4418L56.839 86.7909C56.7388 86.7909 56.639 86.8258 56.5056 86.8258C56.3723 86.8258 56.2721 86.8258 56.1388 86.8258C56.0386 86.8258 55.9052 86.8258 55.8054 86.8258C55.7052 86.8258 55.5718 86.7909 55.4716 86.7909L54.838 84.6281H51.4369L50.8367 86.7909C50.7367 86.7909 50.6366 86.8258 50.5032 86.8258C50.4032 86.8258 50.3032 86.8258 50.1698 86.8258C50.0697 86.8258 49.9363 86.8258 49.8363 86.8258C49.7363 86.8258 49.6362 86.7909 49.5362 86.7909L52.4373 77.4418ZM63.5081 77.4072C63.4082 77.4072 63.3081 77.4418 63.2082 77.4418V84.4536L59.3064 77.4418C59.2066 77.4072 59.1064 77.4072 59.0065 77.4072C58.9064 77.4072 58.8065 77.4072 58.7063 77.4072C58.6061 77.4072 58.5063 77.4072 58.4061 77.4072C58.3063 77.4072 58.2061 77.4418 58.1062 77.4418V86.7909C58.1729 86.7909 58.2728 86.8258 58.3729 86.8258C58.4728 86.8258 58.573 86.8258 58.7063 86.8258C58.8065 86.8258 58.9064 86.8258 59.0065 86.8258C59.1064 86.8258 59.2066 86.7909 59.3064 86.7909V79.8141L63.2082 86.7909C63.3081 86.7909 63.4082 86.8258 63.5081 86.8258C63.6083 86.8258 63.7081 86.8258 63.8083 86.8258C63.9085 86.8258 64.0083 86.8258 64.1085 86.8258C64.2084 86.8258 64.3086 86.7909 64.4084 86.7909V77.4418C64.3086 77.4072 64.2084 77.4072 64.1085 77.4072C64.0083 77.4072 63.9085 77.4072 63.8083 77.4072C63.7081 77.4072 63.6083 77.4072 63.5081 77.4072ZM103.557 77.4418C103.657 77.4072 103.757 77.4072 103.857 77.4072C103.957 77.4072 104.057 77.4072 104.19 77.4072C104.29 77.4072 104.424 77.4072 104.524 77.4072C104.624 77.4072 104.757 77.4418 104.857 77.4418V86.7909C104.757 86.7909 104.657 86.8258 104.557 86.8258C104.457 86.8258 104.324 86.8258 104.224 86.8258C104.124 86.8258 103.99 86.8258 103.89 86.8258C103.79 86.8258 103.69 86.7909 103.59 86.7909V82.4654H99.7885V86.7909C99.6887 86.7909 99.5885 86.8258 99.4886 86.8258C99.3885 86.8258 99.2886 86.8258 99.1549 86.8258C99.0551 86.8258 98.9217 86.8258 98.8215 86.8258C98.7217 86.8258 98.6215 86.7909 98.5217 86.7909V77.4418C98.6215 77.4072 98.7217 77.4072 98.8215 77.4072C98.9217 77.4072 99.0216 77.4072 99.1549 77.4072C99.2551 77.4072 99.3885 77.4072 99.4886 77.4072C99.5885 77.4072 99.6887 77.4418 99.7885 77.4418V81.2791H103.59V77.4418H103.557ZM125.498 77.4072C125.398 77.4072 125.298 77.4418 125.198 77.4418V86.7909H129.967C130 86.6163 130 86.4072 130 86.1977C130 86.1281 130 86.0232 130 85.9186C130 85.8141 130 85.7095 129.967 85.6046H126.465V77.4418C126.366 77.4072 126.265 77.4072 126.165 77.4072C126.065 77.4072 125.965 77.4072 125.832 77.4072C125.698 77.4072 125.599 77.4072 125.498 77.4072ZM74.3121 86.7909V77.4418H79.2476C79.2808 77.6163 79.2808 77.7909 79.2808 78C79.2808 78.1046 79.2808 78.2095 79.2808 78.3141C79.2808 78.4186 79.2808 78.5232 79.2476 78.5931H75.5793V81.2791H78.5138C78.5138 81.349 78.5473 81.4536 78.5473 81.5582C78.5473 81.6627 78.5473 81.7677 78.5473 81.8373C78.5473 81.9418 78.5473 82.0467 78.5473 82.1513C78.5473 82.2559 78.5138 82.3605 78.5138 82.4304H75.5793V85.6395H79.3474C79.3809 85.8141 79.381 85.9886 79.381 86.1977C79.381 86.3023 79.381 86.4072 79.381 86.5118C79.381 86.6163 79.3809 86.7209 79.3474 86.7909H74.3121ZM109.392 85.5699C109.092 85.3954 108.825 85.1513 108.625 84.8373C108.425 84.5232 108.292 84.1395 108.192 83.6863C108.092 83.2327 108.059 82.7095 108.059 82.1513C108.059 81.5931 108.092 81.0699 108.192 80.6163C108.292 80.1627 108.425 79.7791 108.625 79.4654C108.825 79.1513 109.092 78.9072 109.392 78.7327C109.692 78.5582 110.059 78.4886 110.459 78.4886C110.86 78.4886 111.226 78.5582 111.526 78.7327C111.827 78.9072 112.093 79.1513 112.293 79.4654C112.493 79.7791 112.627 80.1627 112.727 80.6163C112.827 81.0699 112.86 81.5931 112.86 82.1513C112.86 82.7095 112.827 83.2327 112.727 83.6863C112.627 84.1395 112.493 84.5232 112.293 84.8373C112.093 85.1513 111.827 85.3954 111.526 85.5699C111.226 85.7441 110.86 85.8141 110.459 85.8141C110.059 85.8141 109.692 85.7441 109.392 85.5699ZM118.496 85.5699C118.196 85.3954 117.929 85.1513 117.729 84.8373C117.529 84.5232 117.395 84.1395 117.295 83.6863C117.195 83.2327 117.162 82.7095 117.162 82.1513C117.162 81.5931 117.195 81.0699 117.295 80.6163C117.395 80.1627 117.529 79.7791 117.729 79.4654C117.929 79.1513 118.196 78.9072 118.496 78.7327C118.796 78.5582 119.163 78.4886 119.563 78.4886C119.963 78.4886 120.33 78.5582 120.63 78.7327C120.93 78.9072 121.197 79.1513 121.397 79.4654C121.597 79.7791 121.73 80.1627 121.831 80.6163C121.93 81.0699 121.964 81.5931 121.964 82.1513C121.964 82.7095 121.93 83.2327 121.831 83.6863C121.73 84.1395 121.597 84.5232 121.397 84.8373C121.197 85.1513 120.93 85.3954 120.63 85.5699C120.33 85.7441 119.963 85.8141 119.563 85.8141C119.163 85.8141 118.796 85.7441 118.496 85.5699ZM43.3005 85.7095C43.4005 85.7095 43.5672 85.7441 43.734 85.7441C43.9007 85.7441 44.1008 85.7791 44.2675 85.7791C44.7677 85.7791 45.2012 85.7095 45.6014 85.6046C46.0015 85.5 46.335 85.2909 46.6351 85.0118C46.9352 84.7327 47.1353 84.349 47.302 83.8954C47.4687 83.4072 47.5354 82.8141 47.5354 82.1163C47.5354 81.4536 47.4687 80.8954 47.302 80.4418C47.1353 79.9886 46.9352 79.6046 46.6351 79.3258C46.335 79.0467 46.0015 78.8373 45.6014 78.6977C45.2012 78.5582 44.7677 78.4886 44.2675 78.4886C44.1008 78.4886 43.9341 78.4886 43.734 78.4886C43.5339 78.4886 43.3672 78.5232 43.2338 78.5232V85.7095H43.3005ZM53.1376 78.6977L54.5047 83.4768H51.7704L53.1376 78.6977Z" fill="white"/>
</g>
<defs>
<clipPath id="clip0_2823_8713">
<rect width="176" height="87" fill="white"/>
</clipPath>
</defs>
</svg>
