<svg width="176" height="87" viewBox="0 0 176 87" fill="none" xmlns="http://www.w3.org/2000/svg">
<g clip-path="url(#clip0_2823_8782)">
<path d="M175.941 32.994C175.793 32.6005 175.561 32.2441 175.26 31.9499C174.934 31.6422 174.548 31.4052 174.126 31.2539C173.118 30.9154 172.027 30.9154 171.019 31.2539C170.598 31.4056 170.213 31.6426 169.888 31.9499C169.586 32.2444 169.352 32.6006 169.201 32.994C169.043 33.4088 168.964 33.8493 168.968 34.2929C168.964 34.7366 169.044 35.1771 169.201 35.5919C169.353 35.9868 169.587 36.3448 169.888 36.6422C170.211 36.9536 170.596 37.1929 171.019 37.3445C172.027 37.6829 173.118 37.6829 174.126 37.3445C174.55 37.1933 174.936 36.9539 175.26 36.6422C175.562 36.3455 175.795 35.9872 175.944 35.5919C176.099 35.1765 176.177 34.7363 176.174 34.2929C176.177 33.8496 176.099 33.4094 175.944 32.994H175.941ZM175.127 35.365C175.01 35.6592 174.825 35.9212 174.586 36.1294C174.33 36.345 174.03 36.5029 173.707 36.5925C172.955 36.7914 172.165 36.7914 171.413 36.5925C171.095 36.5022 170.8 36.3454 170.546 36.1326C170.308 35.9236 170.122 35.6619 170.003 35.3681C169.869 35.0269 169.805 34.6624 169.813 34.296C169.805 33.932 169.869 33.57 170 33.2302C170.117 32.937 170.302 32.676 170.54 32.4689C170.793 32.258 171.087 32.1033 171.404 32.0152C171.78 31.9085 172.169 31.8572 172.56 31.8629C172.95 31.8568 173.338 31.9081 173.713 32.0152C174.028 32.1037 174.321 32.2572 174.574 32.4658C174.813 32.6716 174.999 32.933 175.114 33.2271C175.245 33.568 175.309 33.931 175.301 34.296C175.309 34.6621 175.245 35.0262 175.114 35.3681" fill="white"/>
<path d="M174.04 33.9387C173.832 33.8631 173.616 33.815 173.396 33.7958C173.151 33.7709 172.871 33.7523 172.567 33.7429H172.153C172.051 33.7429 171.97 33.7429 171.914 33.7212C171.875 33.7166 171.837 33.7039 171.802 33.6839C171.793 33.6752 171.785 33.6646 171.781 33.6528C171.776 33.641 171.774 33.6283 171.774 33.6155C171.774 33.6018 171.776 33.5881 171.78 33.5753C171.785 33.5625 171.793 33.5508 171.802 33.5409C171.829 33.5168 171.863 33.5016 171.899 33.4974C171.964 33.4839 172.031 33.4756 172.097 33.4726H172.43C172.648 33.4583 172.868 33.4624 173.086 33.485C173.222 33.513 173.288 33.5658 173.288 33.6497H174.45C174.456 33.477 174.414 33.3059 174.329 33.1556C174.238 33.0109 174.11 32.8929 173.959 32.8138C173.77 32.7185 173.568 32.6545 173.359 32.6242C173.086 32.5785 172.809 32.5546 172.532 32.5528C172.049 32.5302 171.566 32.6107 171.115 32.7889C170.967 32.8486 170.84 32.9524 170.752 33.0863C170.665 33.2202 170.62 33.3778 170.625 33.5378C170.619 33.6968 170.655 33.8545 170.73 33.9946C170.81 34.1304 170.929 34.2387 171.072 34.3054C171.263 34.3944 171.466 34.4531 171.675 34.4794C171.975 34.5212 172.277 34.5461 172.579 34.554L173.017 34.5695C173.103 34.5731 173.188 34.5825 173.272 34.5975C173.315 34.6019 173.355 34.6192 173.387 34.6472C173.407 34.6694 173.417 34.6984 173.415 34.728C173.415 34.7412 173.413 34.7543 173.408 34.7665C173.403 34.7788 173.396 34.79 173.387 34.7995C173.356 34.8269 173.317 34.8442 173.275 34.8492C173.197 34.8673 173.116 34.8777 173.036 34.8803H172.623C172.473 34.8878 172.322 34.8878 172.172 34.8803C172.081 34.8721 171.992 34.8544 171.905 34.8274C171.854 34.8137 171.809 34.7856 171.774 34.7466C171.753 34.7156 171.742 34.6786 171.743 34.641H170.581C170.573 34.8408 170.618 35.0391 170.712 35.2159C170.803 35.3674 170.937 35.4885 171.097 35.5639C171.292 35.658 171.503 35.7179 171.718 35.741C172.002 35.7769 172.287 35.7936 172.573 35.7907C172.857 35.7928 173.142 35.7773 173.424 35.7441C173.639 35.7215 173.849 35.6638 174.046 35.5732C174.203 35.5016 174.337 35.3862 174.431 35.2407C174.525 35.0797 174.571 34.8955 174.565 34.7094C174.574 34.5357 174.525 34.3639 174.425 34.2215C174.321 34.0942 174.183 33.9985 174.027 33.9449" fill="white"/>
<path d="M157.346 32.3322C157.243 32.3238 157.141 32.3498 157.055 32.4061C156.969 32.4624 156.904 32.5457 156.87 32.6429C155.315 35.5432 153.752 38.4435 152.181 41.3438C151.762 42.1176 151.345 42.8975 150.907 43.6961C150.839 43.5781 150.789 43.5004 150.746 43.4196C148.813 39.846 146.883 36.2704 144.956 32.6927C144.912 32.584 144.834 32.4925 144.734 32.4315C144.634 32.3705 144.517 32.3433 144.4 32.3539C141.647 32.3539 138.891 32.3539 136.134 32.3539C135.65 32.3539 135.646 32.3539 135.646 32.8356V50.5046C135.557 50.418 135.49 50.3115 135.451 50.1938C133.031 44.356 130.612 38.5139 128.195 32.6678C128.166 32.5596 128.098 32.4657 128.005 32.4034C127.912 32.3411 127.799 32.3147 127.688 32.3291C124.309 32.3415 120.931 32.3415 117.552 32.3291C117.397 32.3016 117.237 32.3342 117.105 32.4201C116.972 32.5061 116.878 32.6391 116.84 32.7921C114.454 38.5927 112.058 44.385 109.653 50.169L108.795 52.2572C108.894 52.2572 108.95 52.2789 109.006 52.2789C111.579 52.2789 114.149 52.2789 116.722 52.2789C116.801 52.2871 116.88 52.265 116.943 52.2171C117.005 52.1692 117.048 52.099 117.061 52.021C117.44 51.008 117.835 50.0043 118.211 48.9913C118.228 48.8965 118.281 48.8119 118.358 48.7542C118.435 48.6966 118.531 48.6703 118.627 48.6805C121.231 48.6805 123.837 48.6805 126.445 48.6805C126.541 48.6695 126.638 48.6956 126.715 48.7533C126.792 48.8111 126.845 48.8962 126.862 48.9913C127.228 49.9825 127.62 50.9676 127.983 51.9589C128.005 52.0628 128.065 52.1548 128.151 52.216C128.238 52.2772 128.345 52.3031 128.45 52.2883C133.189 52.2883 137.929 52.2883 142.669 52.2883H143.064V42.9224C143.179 43.1119 143.247 43.2145 143.306 43.3201C144.953 46.1666 146.594 49.0223 148.225 51.8625C148.289 52.0049 148.396 52.1232 148.531 52.2004C148.666 52.2775 148.823 52.3094 148.977 52.2914C150.303 52.2665 151.63 52.2665 152.958 52.2914C153.087 52.306 153.218 52.2781 153.33 52.212C153.442 52.1458 153.53 52.045 153.58 51.9247C154.897 49.6127 156.22 47.3049 157.548 45.0013L158.694 43.0063L158.788 43.0374V52.2603H166.152V32.3508C166.022 32.3508 165.919 32.3508 165.817 32.3508C163.001 32.3508 160.189 32.3508 157.374 32.3508L157.346 32.3322ZM120.327 43.5377C121.069 41.5675 121.809 39.6161 122.58 37.5807C123.35 39.6192 124.084 41.5613 124.832 43.5377H120.327Z" fill="white"/>
<path d="M115.578 33.8486C115.79 33.3607 115.995 32.8666 116.2 32.3663C116.152 32.3534 116.103 32.344 116.054 32.3384C111.766 32.3384 107.476 32.3384 103.186 32.3384C102.944 32.3384 102.903 32.4378 102.903 32.6491C102.903 33.8362 102.903 35.0232 102.903 36.2134C102.903 36.2786 102.903 36.3439 102.928 36.4526H108.388C108.344 36.5925 108.326 36.6795 108.291 36.7634C107.244 39.2494 106.178 41.6949 105.156 44.1747C104.631 45.4394 103.602 45.9211 102.359 45.9615C100.563 46.0205 98.764 45.9801 96.9648 45.9801H96.4707V52.3193H102.064C105.622 52.3193 107.347 52.2074 108.236 50.5698C108.733 49.6003 109.391 48.1615 109.827 47.1516C111.741 42.7162 113.651 38.2798 115.557 33.8424" fill="white"/>
<path d="M66.6549 42.3132C66.657 42.8276 66.5944 43.3402 66.4684 43.8389C66.3424 44.3273 66.0856 44.7721 65.7258 45.1254C65.2778 45.5391 64.7394 45.8424 64.1534 46.011C62.4194 46.4461 60.6047 46.4461 58.8707 46.011C58.2912 45.8402 57.7593 45.537 57.317 45.1254C56.9492 44.7752 56.6856 44.3299 56.5557 43.8389C56.4297 43.3402 56.3671 42.8276 56.3692 42.3132V32.3445H48.9486V37.5463C48.4763 36.409 47.7416 35.3995 46.8045 34.6005C44.8116 32.9059 41.6233 32.0586 37.2397 32.0586C35.3264 32.0218 33.4163 32.2307 31.5562 32.6801C30.1316 33.021 28.7999 33.6726 27.6563 34.588C26.6351 35.4359 25.8567 36.5392 25.4003 37.7856C24.8861 39.2384 24.6397 40.7724 24.6732 42.3132C24.6732 42.425 24.6732 42.5369 24.6732 42.6457L24.639 42.5991C23.9725 41.7842 23.0924 41.1709 22.0971 40.8278C20.7944 40.3645 19.436 40.0761 18.0574 39.9702C16.4788 39.8169 14.7086 39.7029 12.7468 39.6283C11.6633 39.591 10.788 39.5579 10.121 39.5289C9.61541 39.5096 9.11126 39.463 8.61076 39.3891C8.35603 39.3691 8.11034 39.2858 7.89604 39.1467C7.83315 39.0924 7.78362 39.0243 7.75129 38.9478C7.71895 38.8713 7.70468 38.7884 7.70959 38.7054C7.70413 38.5314 7.76653 38.362 7.88361 38.2331C8.05883 38.0798 8.27468 37.9805 8.5051 37.9472C8.9245 37.8673 9.34938 37.8195 9.77605 37.8043C10.3167 37.7763 11.019 37.7608 11.9016 37.7608C13.2526 37.7295 14.6039 37.8116 15.9412 38.0062C16.8093 38.1678 17.2422 38.5148 17.2402 39.0472H24.6732C24.7079 37.9152 24.4259 36.796 23.859 35.8155C23.2787 34.8915 22.461 34.1403 21.4912 33.6403C20.2904 33.0285 18.9969 32.619 17.6628 32.4284C15.9479 32.1648 14.2145 32.0401 12.4795 32.0555C8.54343 32.0555 5.52609 32.5558 3.42752 33.5564C1.32895 34.557 0.281743 36.1521 0.285886 38.3418C0.250862 39.3609 0.486763 40.371 0.969526 41.2691C1.48741 42.1136 2.24451 42.7853 3.14474 43.1988C4.36602 43.7609 5.66682 44.1309 7.0011 44.2957C8.91293 44.5636 10.8386 44.7213 12.7685 44.7681C13.9307 44.8054 14.863 44.8457 15.5652 44.883C16.1113 44.9026 16.6553 44.9597 17.1935 45.0539C17.4662 45.0789 17.7245 45.1875 17.9331 45.3647C18.0523 45.5084 18.1142 45.6909 18.1071 45.8774C18.1133 46.0516 18.0508 46.2212 17.9331 46.3498C17.729 46.5167 17.4828 46.6243 17.2215 46.6605C16.718 46.7654 16.2066 46.8278 15.6926 46.847C15.037 46.8842 14.1389 46.9029 13.0513 46.9029C11.8705 46.9029 10.9134 46.8656 10.18 46.791C9.59897 46.7441 9.02481 46.6336 8.46781 46.4616C8.14583 46.3767 7.85678 46.1969 7.63812 45.9458C7.50239 45.7551 7.42862 45.5273 7.42682 45.2932H0C0 46.7786 0.280707 47.9977 0.84212 48.9507C1.43185 49.9262 2.29672 50.7057 3.32808 51.1912C4.58951 51.7861 5.94101 52.1673 7.32738 52.3192C9.13646 52.5422 10.9583 52.646 12.781 52.6299C14.6035 52.6391 16.4248 52.5353 18.2345 52.3192C19.6114 52.1723 20.9562 51.8073 22.2183 51.2378C23.2336 50.7808 24.0964 50.042 24.7043 49.1092C25.1052 48.4448 25.3624 47.7038 25.4594 46.934C25.9173 48.1494 26.6727 49.2306 27.6563 50.0787C29.6451 51.7754 32.8385 52.6227 37.2366 52.6206C41.6347 52.6185 44.823 51.7671 46.8014 50.0663C48.069 48.9673 48.9656 47.503 49.3681 45.8743C49.7649 47.5075 50.6597 48.9768 51.9287 50.0787C53.9174 51.7754 57.1109 52.6227 61.509 52.6206C65.907 52.6185 69.0963 51.7671 71.0768 50.0663C73.0739 48.3634 74.0734 45.7738 74.0755 42.2976V32.3445H66.6549V42.3132ZM42.193 43.8389C42.0683 44.3278 41.8113 44.7729 41.4503 45.1254C41.008 45.537 40.4761 45.8402 39.8966 46.011C39.0369 46.2473 38.1464 46.3521 37.2553 46.3218C36.3642 46.3523 35.4736 46.2476 34.6139 46.011C34.028 45.8424 33.4895 45.5391 33.0416 45.1254C32.6817 44.7721 32.4249 44.3273 32.2989 43.8389C32.174 43.3401 32.1124 42.8274 32.1155 42.3132C32.1116 41.803 32.1732 41.2944 32.2989 40.7998C32.4262 40.3201 32.6832 39.8847 33.0416 39.5413C33.4874 39.138 34.0185 38.8406 34.5953 38.6712C35.4589 38.4264 36.3549 38.3154 37.2522 38.3418C38.1484 38.3153 39.0434 38.4264 39.9059 38.6712C40.4833 38.8392 41.0147 39.1368 41.4597 39.5413C41.8214 39.887 42.0788 40.3274 42.2023 40.8123C42.3273 41.3027 42.39 41.807 42.3888 42.3132C42.3909 42.8276 42.3283 43.3402 42.2023 43.8389" fill="white"/>
<path d="M82.4374 32.3445H75.0137V52.3347H95.5757V46.0546H82.4374V32.3445Z" fill="white"/>
</g>
<defs>
<clipPath id="clip0_2823_8782">
<rect width="176" height="87" fill="white"/>
</clipPath>
</defs>
</svg>
