<svg width="176" height="87" viewBox="0 0 176 87" fill="none" xmlns="http://www.w3.org/2000/svg">
<g clip-path="url(#clip0_2823_8761)">
<path d="M175.756 31.7072C175.682 31.8539 173.783 35.9251 169.018 36.8603C165.835 37.4839 163.266 36.3652 161.572 34.6597C160.94 34.0179 160.27 33.1926 159.655 32.0923L173.69 24.6102C172.908 17.6783 164.029 14.9825 156.565 18.3385C148.841 21.8228 146.812 29.1032 149.529 35.4299C152.228 41.7384 159.879 44.4708 167.157 41.1332C172.517 38.6942 175.868 33.7428 175.998 31.5238C176.017 31.4688 175.924 31.3771 175.756 31.7072ZM160.214 18.2651C162.131 18.0817 163.49 21.566 164.123 25.8206C164.29 26.9576 164.383 27.7645 164.383 28.5163L159.32 31.3771C158.725 30.0934 158.222 28.4797 157.961 26.4441C157.403 22.0979 158.501 18.4118 160.214 18.2651Z" fill="white"/>
<path d="M43.8962 19.3287C43.3192 18.1184 42.1838 17.3665 41.6626 17.3298C41.644 17.3298 41.6254 17.3482 41.6998 17.3848C41.737 17.4032 42.6863 17.825 42.8911 18.9069C43.04 19.6221 42.7794 20.209 42.3885 20.5941C42.2396 20.7408 42.0535 20.8875 41.7929 21.0159L40.0618 17.8617C38.4424 18.045 37.8282 20.0439 38.6099 21.7311C39.4103 23.4732 41.1042 23.9317 42.5747 23.3265C44.0265 22.703 44.678 20.9792 43.8962 19.3287ZM40.4713 21.401C39.4662 21.5293 38.6099 21.2726 38.5727 20.8875C38.5355 20.4474 39.3359 20.154 40.3224 20.0073C40.583 19.9706 40.7691 19.9522 40.9553 19.9522L41.6254 21.0892C41.3275 21.2359 40.9553 21.346 40.4713 21.401Z" fill="white"/>
<path d="M38.4803 31.6335H38.2942V32.3304H36.0605V32.4588C37.1215 32.5871 38.2942 33.7791 38.2942 34.7511C38.2942 35.0995 38.2942 35.2829 38.2942 35.2829H38.4803V34.8978C38.4803 34.6961 38.6479 34.5494 38.834 34.5494H43.4316C43.8411 34.5494 44.1948 34.2193 44.1948 33.7975V32.3304V31.7436H44.0086V32.1103C44.0086 32.2204 43.9155 32.3304 43.7852 32.3304H38.4803V31.6335Z" fill="white"/>
<path d="M44.0088 23.9683V24.335C44.0088 24.4451 43.9157 24.5551 43.7854 24.5551C43.7854 24.5551 40.3977 24.5551 40.0441 24.5551C39.5601 24.5551 38.2758 24.6468 38.2758 26.0222C38.2758 26.8841 39.0948 27.8377 39.4298 28.1861H36.1538H36.0607H35.0742C35.4837 28.883 35.7815 29.7999 35.9677 30.9552H36.1538V30.6435C36.1538 30.4968 36.2655 30.3867 36.4144 30.3867H43.8041C43.9157 30.3867 44.0274 30.4784 44.0274 30.6068V30.9736H44.2136V30.3867V28.1678V27.5809H44.0274V27.9477C44.0274 28.0577 43.9344 28.1678 43.8041 28.1678H39.8021C39.5601 27.911 39.1134 27.4342 39.1134 27.1958C39.1134 26.8474 39.4112 26.774 39.6346 26.774C39.9696 26.774 43.8041 26.774 43.8041 26.774C43.9157 26.774 44.0274 26.8657 44.0274 26.9941V27.3609H44.2136V26.774V24.5551V23.9683H44.0088Z" fill="white"/>
<path d="M105.377 24.4266C104.279 24.0048 102.623 23.3263 102.753 21.144C102.865 19.4385 104.093 17.6414 106.922 17.6414C109.714 17.6414 110.273 19.6769 110.385 22.0793C110.385 25.2702 106.978 26.2054 103.572 27.2324C98.3228 28.8278 95.1957 30.2216 93.5205 32.9173C96.6848 33.1924 99.8492 33.5959 103.051 34.1093C103.758 31.9821 105.322 30.405 107.015 28.5894C107.928 27.6175 109.659 25.6553 110.422 24.2799C110.422 25.4169 110.422 31.0468 110.422 35.4114C113.754 36.0532 117.141 36.7684 120.566 37.4836C120.566 35.228 120.566 31.9271 120.566 27.9843C120.566 19.1635 113.307 16.8345 106.848 16.8345C99.4397 16.8345 92.1431 19.9704 94.0603 24.8484C95.6983 29.0296 103.684 26.9206 105.377 24.4266Z" fill="white"/>
<path d="M64.612 35.5945L60.2005 19.2182C59.9213 18.2829 60.275 17.7144 60.9451 17.7144H62.1736L62.0247 17.1826H47.1709L47.3198 17.7144H48.6414C49.3673 17.7144 49.814 18.2462 49.963 18.8147L55.4168 39.0788C58.5439 37.6667 61.5965 36.5114 64.612 35.5945Z" fill="white"/>
<path d="M89.4051 19.1082L85.7754 32.5686C86.036 32.5686 86.278 32.5686 86.5385 32.5686L90.1868 19.0165C90.3544 18.3563 90.8755 17.7144 91.6945 17.7144H92.8858L93.0347 17.1826H87.5251L87.3762 17.7144H88.6047C89.4423 17.7144 89.6098 18.3746 89.4051 19.1082Z" fill="white"/>
<path d="M66.3427 17.7144C67.0686 17.7144 67.5153 18.2462 67.6642 18.8147L69.7304 26.4986L67.4967 34.7876C67.7759 34.7142 68.0365 34.6409 68.3157 34.5858L70.1026 27.929L71.7034 33.8523C74.9981 33.2288 78.2555 32.8437 81.4943 32.6786L77.8646 19.2182C77.5854 18.2829 77.939 17.7144 78.6091 17.7144H79.8376L79.6887 17.1826H64.835L64.9839 17.7144H66.3427V17.7144Z" fill="white"/>
<path d="M1.69922 52.0264C3.91425 53.7502 13.7795 64.1481 40.118 58.7016C68.5225 52.8149 75.8005 36.5853 103.144 40.3447C100.203 37.7773 86.5406 33.8162 67.4802 39.4828C50.8209 44.4526 28.3541 56.0058 1.69922 52.0264Z" fill="white"/>
<path d="M8.12012 63.5241C10.3352 65.2479 24.0162 75.7742 46.5575 70.8778C66.288 66.605 69.1173 47.3679 96.8332 43.3885C88.9223 41.5363 76.6559 45.1306 66.8837 50.9989C52.0485 59.9114 39.9124 70.4927 8.12012 63.5241Z" fill="white"/>
<path d="M144.057 17.1829L143.908 17.7147H145.137C145.956 17.7147 146.123 18.3749 145.919 19.1084L140.148 40.5644L134.397 19.2184C134.118 18.2832 134.471 17.7147 135.141 17.7147H136.37L136.221 17.1829H121.386L121.535 17.7147H122.856C123.582 17.7147 124.029 18.2465 124.178 18.815L129.706 39.3724C133.28 40.0693 136.947 40.7478 140.688 41.3346L146.7 19.0167C146.868 18.3565 147.389 17.7147 148.208 17.7147H149.399L149.548 17.1829H144.057V17.1829Z" fill="white"/>
</g>
<defs>
<clipPath id="clip0_2823_8761">
<rect width="176" height="87" fill="white"/>
</clipPath>
</defs>
</svg>
