<svg width="16" height="12" viewBox="0 0 16 12" fill="none" xmlns="http://www.w3.org/2000/svg">
<path d="M15.115 2.22113C14.9425 1.54365 14.4342 1.0101 13.7889 0.829026C12.6191 0.5 7.92847 0.5 7.92847 0.5C7.92847 0.5 3.23786 0.5 2.06806 0.829026C1.4227 1.01013 0.914419 1.54365 0.741906 2.22113C0.428467 3.44909 0.428467 6.01111 0.428467 6.01111C0.428467 6.01111 0.428467 8.57314 0.741906 9.8011C0.914419 10.4786 1.4227 10.9899 2.06806 11.171C3.23786 11.5 7.92847 11.5 7.92847 11.5C7.92847 11.5 12.6191 11.5 13.7889 11.171C14.4342 10.9899 14.9425 10.4786 15.115 9.8011C15.4285 8.57314 15.4285 6.01111 15.4285 6.01111C15.4285 6.01111 15.4285 3.44909 15.115 2.22113ZM6.39436 8.33724V3.68499L10.3148 6.01117L6.39436 8.33724Z" fill="white"/>
</svg>
